HIERARCHY
ROOT hips
{
  OFFSET 0 11.86390953 0.3628582958
  CHANNELS 6 Xposition Yposition Zposition Yrotation Xrotation Zrotation
  JOINT spine
  {
    OFFSET 0 0.05383551117999996 0
    CHANNELS 3 Yrotation Xrotation Zrotation
    JOINT chest
    {
      OFFSET 0 0.6394558760401424 0
      CHANNELS 3 Yrotation Xrotation Zrotation
      JOINT neck
      {
        OFFSET 0 2.720089088562982 0
        CHANNELS 3 Yrotation Xrotation Zrotation
        JOINT head
        {
          OFFSET 0 0.37880844870545777 0
          CHANNELS 3 Yrotation Xrotation Zrotation
          JOINT rightEye
          {
            OFFSET -0.42867780714 0.7547055649100001 0.7381831347
            CHANNELS 3 Yrotation Xrotation Zrotation
            End Site
            {
              OFFSET -0.42867780714 0.7547055649100001 0.7381831347
            }
          }
          JOINT leftEye
          {
            OFFSET 0.428676479 0.7547055559999993 0.7381844503
            CHANNELS 3 Yrotation Xrotation Zrotation
            End Site
            {
              OFFSET 0.428676479 0.7547055559999993 0.7381844503
            }
          }
          JOINT jaw
          {
            OFFSET -0.18933892286100001 1.5626303011000007 1.137441874206
            CHANNELS 3 Yrotation Xrotation Zrotation
            End Site
            {
              OFFSET -0.18933892286100001 1.5626303011000007 1.137441874206
            }
          }
        }
      }
      JOINT rightShoulder
      {
        OFFSET -0.6795351508 2.0665205 0
        CHANNELS 3 Yrotation Xrotation Zrotation
        JOINT rightUpperArm
        {
          OFFSET -0.7287400483531672 0 0
          CHANNELS 3 Yrotation Xrotation Zrotation
          JOINT rightLowerArm
          {
            OFFSET -1.9872982039174532 0 0
            CHANNELS 3 Yrotation Xrotation Zrotation
            JOINT rightHand
            {
              OFFSET -2.6451847532219275 0 0
              CHANNELS 3 Yrotation Xrotation Zrotation
              JOINT rightLittleProximal
              {
                OFFSET -0.8008804099999995 -0.09592044000000044 -0.26183688629999996
                CHANNELS 3 Yrotation Xrotation Zrotation
                JOINT rightLittleIntermediate
                {
                  OFFSET -0.2473955153999997 -0.02541697026000067 0.002370178700999967
                  CHANNELS 3 Yrotation Xrotation Zrotation
                  JOINT rightLittleDistal
                  {
                    OFFSET -0.163687229200001 -0.015790700860001117 -0.0004274845300000635
                    CHANNELS 3 Yrotation Xrotation Zrotation
                    End Site
                    {
                      OFFSET -0.163687229200001 -0.015790700860001117 -0.0004274845300000635
                    }
                  }
                }
              }
              JOINT rightRingProximal
              {
                OFFSET -0.8393382799999985 -0.06223833561000025 -0.09213143500000005
                CHANNELS 3 Yrotation Xrotation Zrotation
                JOINT rightRingIntermediate
                {
                  OFFSET -0.3284497260000011 -0.03264224524000103 0.009408593183000052
                  CHANNELS 3 Yrotation Xrotation Zrotation
                  JOINT rightRingDistal
                  {
                    OFFSET -0.19447660429999902 -0.021730899850000318 0.003074347969000052
                    CHANNELS 3 Yrotation Xrotation Zrotation
                    End Site
                    {
                      OFFSET -0.19447660429999902 -0.021730899850000318 0.003074347969000052
                    }
                  }
                }
              }
              JOINT rightMiddleProximal
              {
                OFFSET -0.8473005199999989 -0.06735503500000095 0.10541820299999995
                CHANNELS 3 Yrotation Xrotation Zrotation
                JOINT rightMiddleIntermediate
                {
                  OFFSET -0.3450455799999995 -0.02481901642000084 0.019012570390000032
                  CHANNELS 3 Yrotation Xrotation Zrotation
                  JOINT rightMiddleDistal
                  {
                    OFFSET -0.23542332000000088 -0.025003910029999243 0.0075583457949999905
                    CHANNELS 3 Yrotation Xrotation Zrotation
                    End Site
                    {
                      OFFSET -0.23542332000000088 -0.025003910029999243 0.0075583457949999905
                    }
                  }
                }
              }
              JOINT rightIndexProximal
              {
                OFFSET -0.8008568281999987 -0.09897839600000169 0.29462796
                CHANNELS 3 Yrotation Xrotation Zrotation
                JOINT rightIndexIntermediate
                {
                  OFFSET -0.30524754480000016 -0.024634122809999992 0.02743375304999998
                  CHANNELS 3 Yrotation Xrotation Zrotation
                  JOINT rightIndexDistal
                  {
                    OFFSET -0.23067378950000017 -0.016876459159999913 0.008484125099999983
                    CHANNELS 3 Yrotation Xrotation Zrotation
                    End Site
                    {
                      OFFSET -0.23067378950000017 -0.016876459159999913 0.008484125099999983
                    }
                  }
                }
              }
              JOINT rightThumbProximal
              {
                OFFSET -0.25574064999999935 -0.12833189930000155 0.22385698609999993
                CHANNELS 3 Yrotation Xrotation Zrotation
                JOINT rightThumbIntermediate
                {
                  OFFSET -0.22791743260000086 -0.07103586192999978 0.27385039
                  CHANNELS 3 Yrotation Xrotation Zrotation
                  JOINT rightThumbDistal
                  {
                    OFFSET -0.13610267659999975 -0.03369390969999997 0.14246511509999996
                    CHANNELS 3 Yrotation Xrotation Zrotation
                    End Site
                    {
                      OFFSET -0.13610267659999975 -0.03369390969999997 0.14246511509999996
                    }
                  }
                }
              }
            }
          }
        }
      }
      JOINT leftShoulder
      {
        OFFSET 0.6795338396 2.0665205 0
        CHANNELS 3 Yrotation Xrotation Zrotation
        JOINT leftUpperArm
        {
          OFFSET 0.7287383950230443 0 0
          CHANNELS 3 Yrotation Xrotation Zrotation
          JOINT leftLowerArm
          {
            OFFSET 1.9872997282019604 0 0
            CHANNELS 3 Yrotation Xrotation Zrotation
            JOINT leftHand
            {
              OFFSET 2.6451820781302327 0 0
              CHANNELS 3 Yrotation Xrotation Zrotation
              JOINT leftLittleProximal
              {
                OFFSET 0.8008804099999995 -0.09592306899999814 -0.2618342639000001
                CHANNELS 3 Yrotation Xrotation Zrotation
                JOINT leftLittleIntermediate
                {
                  OFFSET 0.2473981400000007 -0.02542352681000093 0.0023609995859999455
                  CHANNELS 3 Yrotation Xrotation Zrotation
                  JOINT leftLittleDistal
                  {
                    OFFSET 0.1636846068000002 -0.015794634789999318 -0.00043272972159996703
                    CHANNELS 3 Yrotation Xrotation Zrotation
                    End Site
                    {
                      OFFSET 0.1636846068000002 -0.015794634789999318 -0.00043272972159996703
                    }
                  }
                }
              }
              JOINT leftRingProximal
              {
                OFFSET 0.8393409199999996 -0.062242267999998324 -0.0921281570000001
                CHANNELS 3 Yrotation Xrotation Zrotation
                JOINT leftRingIntermediate
                {
                  OFFSET 0.3284471036000003 -0.03264224524000103 0.009405970574000042
                  CHANNELS 3 Yrotation Xrotation Zrotation
                  JOINT leftRingDistal
                  {
                    OFFSET 0.1944779099999996 -0.021732211159998904 0.003073036670000001
                    CHANNELS 3 Yrotation Xrotation Zrotation
                    End Site
                    {
                      OFFSET 0.1944779099999996 -0.021732211159998904 0.003073036670000001
                    }
                  }
                }
              }
              JOINT leftMiddleProximal
              {
                OFFSET 0.8473005200000001 -0.06736028199999788 0.1054214809999999
                CHANNELS 3 Yrotation Xrotation Zrotation
                JOINT leftMiddleIntermediate
                {
                  OFFSET 0.3450455799999995 -0.024824261000000014 0.019013225990000007
                  CHANNELS 3 Yrotation Xrotation Zrotation
                  JOINT leftMiddleDistal
                  {
                    OFFSET 0.2354259489999998 -0.025005222000000327 0.0075590014499999705
                    CHANNELS 3 Yrotation Xrotation Zrotation
                    End Site
                    {
                      OFFSET 0.2354259489999998 -0.025005222000000327 0.0075590014499999705
                    }
                  }
                }
              }
              JOINT leftIndexProximal
              {
                OFFSET 0.8008594516999996 -0.09898495199999946 0.29463124239999994
                CHANNELS 3 Yrotation Xrotation Zrotation
                JOINT leftIndexIntermediate
                {
                  OFFSET 0.30524754480000016 -0.024632811499998963 0.02743047472
                  CHANNELS 3 Yrotation Xrotation Zrotation
                  JOINT leftIndexDistal
                  {
                    OFFSET 0.23067378950000017 -0.016876459159999913 0.008481502700000004
                    CHANNELS 3 Yrotation Xrotation Zrotation
                    End Site
                    {
                      OFFSET 0.23067378950000017 -0.016876459159999913 0.008481502700000004
                    }
                  }
                }
              }
              JOINT leftThumbProximal
              {
                OFFSET 0.25574326469999953 -0.12833321050000013 0.22385764169999997
                CHANNELS 3 Yrotation Xrotation Zrotation
                JOINT leftThumbIntermediate
                {
                  OFFSET 0.22804987480000094 -0.07138466829999968 0.273648441
                  CHANNELS 3 Yrotation Xrotation Zrotation
                  JOINT leftThumbDistal
                  {
                    OFFSET 0.13614857189999907 -0.033867001519998885 0.14238119169999996
                    CHANNELS 3 Yrotation Xrotation Zrotation
                    End Site
                    {
                      OFFSET 0.13614857189999907 -0.033867001519998885 0.14238119169999996
                    }
                  }
                }
              }
            }
          }
        }
      }
    }
  }
  JOINT rightUpperLeg
  {
    OFFSET -0.9749898906000001 -1.8495733739999998 0
    CHANNELS 3 Yrotation Xrotation Zrotation
    JOINT rightLowerLeg
    {
      OFFSET 0 -4.1566544686813165 0
      CHANNELS 3 Yrotation Xrotation Zrotation
      JOINT rightFoot
      {
        OFFSET 0.14539718599999998 -4.225553926 -0.3666210900000001
        CHANNELS 3 Yrotation Xrotation Zrotation
        JOINT rightToes
        {
          OFFSET 0.1706738473 -0.9584117400000015 1.0093348617
          CHANNELS 3 Yrotation Xrotation Zrotation
          End Site
          {
            OFFSET 0.1706738473 -0.9584117400000015 1.0093348617
          }
        }
      }
    }
  }
  JOINT leftUpperLeg
  {
    OFFSET 0.9749898906000001 -1.8495733739999998 0
    CHANNELS 3 Yrotation Xrotation Zrotation
    JOINT leftLowerLeg
    {
      OFFSET 0 -4.156653488267941 0
      CHANNELS 3 Yrotation Xrotation Zrotation
      JOINT leftFoot
      {
        OFFSET -0.14537357999999995 -4.225555399999999 -0.36661124279999996
        CHANNELS 3 Yrotation Xrotation Zrotation
        JOINT leftToes
        {
          OFFSET -0.17066467000000002 -0.9584157000000019 1.0093348617
          CHANNELS 3 Yrotation Xrotation Zrotation
          End Site
          {
            OFFSET -0.17066467000000002 -0.9584157000000019 1.0093348617
          }
        }
      }
    }
  }
}
MOTION
Frames: 4
Frame Time: 0.03333333333333333
-0.807737410068512 -1.9928071969311532 -1.349487543106079 0.795704779337587 35.90447879140601 5.770132333460869 2.673476729232044 18.81850174874205 1.2462897881865698 3.125225680830137 18.36663755931384 3.134920488207181 -5.806294025752518 -7.502767300227314 1.3262113981597374 -40.806265626079124 -43.47950747298503 35.4842343810836 0 0 0 0 0 0 0 0 0 6.534421555311499 2.3339434756297175 8.038402518735662 68.18435084052975 -40.20149766802662 -0.23087373889153637 101.24705890172754 0.8845280367381494 -0.7258985945050604 46.46222552195147 -43.746364991619075 -29.258429052989456 -27.661036797296507 1.2618528816680747 27.78999217160604 -5.3887488658516185 4.393170353551902 90.29880736786019 -3.4164941697597517 -0.15577132705671853 56.33632565522061 -14.964063402845156 4.559520381731753 29.58275238200082 -4.77350849057348 5.449679485496136 89.01406320020568 -2.9714278650130725 1.2088673246105612 57.59124560688344 -6.9926244968498885 0.4000435613320463 26.406294326771715 -5.863102812810884 5.2277098974862755 94.06531287246922 -4.42708681610307 2.4119532930134144 58.869354682947 8.591451272715263 6.96704643585171 27.696742184864224 -5.815836406325859 5.302268196867243 92.78159524770042 -3.5886042219153644 1.1895387783685314 56.269293615137464 -7.583318182873282 -3.1832363747344217 12.758696606550219 -26.152169154455184 8.096090336603577 -19.481652286373233 -25.773217048258278 9.730782147322842 -0.19132048158832968 -26.495041672158692 -2.7142251066605865 10.368657206437772 15.873047972042148 -37.14059504711649 -38.61139983730293 -136.17851537202287 1.2740169051531547 0.5126429534896101 -20.511447426410328 -18.02720682049901 46.20765285410176 27.920885604727392 1.3989253369064374 -27.78899363035946 5.09303629890687 4.759088329790552 -90.29986952221188 4.706722346183443 2.5778425759377512 -54.70653844841848 14.980091754468615 4.5686698321731045 -29.58170602655233 4.754486670588707 5.442486416054958 -89.01379737541747 3.945739362105622 2.911805380091666 -59.09972513472669 6.937759702654944 0.3728455560534479 -26.405804568166353 5.921043838583537 5.266030732292553 -94.06693158450078 4.300758895945989 2.2848117988168224 -55.23782690678878 -8.612945746746318 6.955892040796854 -27.698789711569265 5.838451863525208 5.319400138143063 -92.78229426581896 3.887980949555909 1.801033910308193 -52.593102690454856 7.496392313649228 -3.2472053167341817 -12.776050999199079 26.274346871479164 8.127476605396359 19.52509358959976 26.76315027163173 9.86839407318927 1.137763367112538 22.429725933648715 -77.48011899306933 -28.712357586470166 9.841495408362283 63.18371920694715 8.419951753602133 0.8623972603324056 -20.09430729922306 3.7087314002207323 0.000005912719003033005 -6.822696566351739 -0.000001828710983721979 -9.652826070723746 -71.8813140155503 25.017180073908108 13.321364488509873 47.645298675913196 10.189660339022344 2.1012760068309007 -2.208923835223612 -21.279955808778936 0.000016867654489397556 -10.187001234867862 -0.000007194003794479231
-0.7564007639884949 -1.9821460717480477 -1.3466041088104248 0.4821332627448974 35.95550690831158 4.856372414439348 2.2980681162766676 18.433011999191994 0.3190458909398528 2.8508445591740483 18.33518682444916 2.346540281351746 -7.672133164575201 -6.879864953002823 2.572532143966351 -52.65503295750972 -35.71707155848169 46.92727251406892 0 0 0 0 0 0 0 0 0 5.728762544180602 2.4426740200165256 9.149137656366571 64.60341170097898 -41.73349309897901 -0.5076952697176833 103.36519917583591 0.9112731658732871 -0.7200518902083636 48.155078842089154 -41.93611506922089 -29.20023275608631 -27.661050558215596 1.26184028545215 27.789993682575393 -5.388732242001642 4.393193473369273 90.29881675126227 -3.4164969396028106 -0.1557851609089611 56.33631334187746 -14.964075871613945 4.559510103921788 29.582750690684083 -4.773511054599761 5.449688919648766 89.01406320020568 -2.9714282914208585 1.2088630547920014 57.59124377613616 -6.992643140612904 0.40006322528566113 26.40629279734766 -5.863078506446308 5.227710326156172 94.06531287246922 -4.4270770183203485 2.411941970481702 58.86936876200935 8.591461478391047 6.967042565290404 27.69673753946213 -5.815860212169995 5.302281487227815 92.78160531078062 -3.5885999604992405 1.1895430481569458 56.26928603676344 -7.58332371993857 -3.1832468496238326 12.75867833760122 -26.152172223004342 8.09610327213341 -19.48164578240024 -25.773235662744824 9.730777816141085 -0.19131824833520628 -24.89601772368521 -2.7530237513511135 9.955556408498047 6.531953815498716 -39.40009757469691 -32.95111291012228 -135.465300995721 1.267616083852255 0.5192463906466444 -12.724594378799566 -14.318847689386715 45.53019351268199 27.92090398660267 1.3989346244630347 -27.788989015576334 5.093003871801079 4.759101180700744 -90.29984994277761 4.706706588688768 2.5778246285292084 -54.70654321377355 14.980114152107591 4.568660410727198 -29.58169688673655 4.754481826801608 5.442507857054515 -89.0138168356927 3.9457193201063143 2.9117953352826316 -59.09973569325799 6.937768166808956 0.3728674878283734 -26.405796931650674 5.921033250977433 5.266020443583198 -94.06693158450078 4.300757361567351 2.2847904374935366 -55.23780897020981 -8.612945746746318 6.955898491579092 -27.69878202006854 5.838450661607278 5.319396279544089 -92.78228441657917 3.887969870569696 1.8010155451023577 -52.593112269834904 7.496408868829555 -3.2472070270274633 -12.776039323551487 26.27435149190928 8.127483504884225 19.525110526696597 26.763159570177894 9.868390606806157 1.1377561108038587 20.5470091552487 -77.3383364705618 -26.5864960516108 9.274352069908408 62.72207623189996 7.899526759588552 0.8474497306824129 -19.929635130145634 4.106285516796115 0.0000057832433354629096 -6.819142766826651 -9.621206118688504e-7 -12.509979682779369 -72.49611310509974 28.443348780166414 11.323275476713217 48.79350687633358 8.736119214042953 1.1378042325756006 -0.4519809834725712 -21.103986800955507 0.000008781760893200976 -13.7756897841095 -0.000004067241931202903
-0.7354998588562012 -1.988104628876954 -1.3488737344741821 0.14646473580062708 36.12720512279476 4.11611111218685 2.1442876371198856 18.256719839934288 0.08855341098590219 2.6071671775569185 18.386437082735597 1.9096432931556142 -8.494912908148523 -6.6023032969743305 3.225512013611508 -56.64989132423691 -31.493778827651106 50.34821044266746 0 0 0 0 0 0 0 0 0 5.10557175798307 2.523192386067022 9.617077883407903 62.471733230896454 -42.83574927632772 -0.6882527486364679 104.49431496883146 0.9253982105832793 -0.7165384644748326 50.447085890262024 -40.812499458185655 -30.14039208254388 -27.661036797296507 1.261841246180481 27.789990578993073 -5.388724247790404 4.393185338618635 90.29881675126227 -3.4164973657325106 -0.155797647394696 56.33631334187746 -14.964059208467178 4.559509675679709 29.582758340688333 -4.773504644534024 5.449679914321253 89.01406320020568 -2.971422321711826 1.208858891718912 57.591257919843414 -6.992638903394168 0.4000474834503348 26.406294326771715 -5.863111691675594 5.22771718487457 94.06530303786799 -4.427076166339229 2.411955856605513 58.869371687891125 8.591457226026202 6.9670391247914925 27.69673753946213 -5.815855093995375 5.302294348867351 92.78159524770042 -3.5886008127824676 1.1895561777563612 56.26928603676344 -7.583311401958375 -3.1832444981180372 12.758680839540702 -26.152164509944626 8.096112758188886 -19.481639278426723 -25.773229422225697 9.730792542159284 -0.19132282115569407 -24.671951149034747 -2.7217179289404445 9.62154564452196 1.6919956914301124 -40.60212477559741 -29.296371666887477 -134.32344504681353 1.2571518286697656 0.5296622034241435 -9.392209699779427 -12.942790678271656 44.65728536271481 27.920888713558956 1.3989169033780646 -27.789008904194635 5.093032458855038 4.759089614881561 -90.29985977707238 4.706706162810523 2.577850908663232 -54.70653844841848 14.980101683120854 4.568659554232123 -29.581721326770598 4.754477696355843 5.442487273694925 -89.01380718867239 3.9457342449995076 2.911804311494956 -59.09972044450084 6.93776309281576 0.37284078015599564 -26.405801509315033 5.921027353872518 5.2660007235574104 -94.06691148651389 4.300757617875583 2.2848030406742366 -55.237824098968154 -8.612943530704834 6.9558782791283775 -27.698786589304543 5.838449730978959 5.319400995609505 -92.78226450398519 3.8879651833062114 1.8010243006074422 -52.59314372206595 7.496410564505033 -3.2472106614006964 -12.776051755630611 26.274334537286865 8.127475742960383 19.52510124530634 26.763168882124617 9.86839667297663 1.1377778797297868 19.366027094598714 -77.54433623711063 -25.06195023880048 9.015924945048608 62.604397320822635 7.66360147928355 0.820163315030837 -19.86074063974802 4.2735210123058875 0.00000482251377812993 -6.821631197600443 -0.000001579200124875856 -14.659805319531188 -72.81775463674808 31.07633252370614 9.840833514153752 49.36371097203838 7.615860457177197 1.0364767604425127 -0.1890362869635681 -21.043525924541417 0.000006667953964210747 -14.720781231400625 -0.00000713809649868414
-0.6477785110473633 -2.0284660332958993 -1.3519655466079712 -0.6041470777343199 36.60632361126456 1.519175385767292 1.0496590406345805 17.873310689825562 -0.1582446457094181 0.8956384419569866 18.750721875558334 0.08523098054974197 -10.397389087754792 -5.835011031838355 5.0409953776198275 -63.54339086066279 -17.77228101375351 54.88256807387099 0 0 0 0 0 0 0 0 0 2.447374728186452 2.88418676702403 11.042749218633627 53.70381203556309 -47.461529868091574 1.2641857538129981 108.58866136899303 0.9760828457449535 -0.7014816748743963 61.12240630886201 -33.053010465219494 -35.25429026979409 -27.661024622184488 1.261839644966596 27.789978409594415 -5.388721264022464 4.39318662305294 90.29880698434265 -3.416499709445854 -0.1558053313859212 56.336322812807346 -14.964074216735906 4.559527661847233 29.582758542333586 -4.773517037327676 5.44966276131684 89.0140630448552 -2.9714261593819256 1.2088599591735496 57.59124849070542 -6.992644835500378 0.40004486870480893 26.406279053690987 -5.863101457416794 5.2277223289134165 94.06533296926233 -4.427081704216465 2.411945602237146 58.86936876200935 8.591455525080239 6.967047295976448 27.696743708007613 -5.815852961422589 5.302281487227815 92.7815850658432 -3.5885888808171305 1.1895625824390257 56.269298352713164 -7.583309706729615 -3.1832370160541785 12.758681673520517 -26.152167606285037 8.096098097921429 -19.48163325003026 -25.773224795371796 9.730765688832467 -0.191336928416065 -25.950742646257407 -2.4346284546948826 7.854745864869827 -16.087566312921993 -43.370623030088254 -13.19526515397954 -126.8221983994187 1.1835933178901215 0.5926332465728121 -1.4300255526292616 -8.849167125346069 41.40019564578349 27.920896350080838 1.3989161561034003 -27.788995141426636 5.093017098647256 4.759101609064421 -90.29985971469007 4.70670190402805 2.5778397983626027 -54.70652810259199 14.980115806882782 4.568671545163283 -29.581704536845972 4.754475559633697 5.442507857054515 -89.0138265899022 3.9457291278933306 2.911819058129644 -59.09973100303217 6.93777240451007 0.3728506788037905 -26.405786236283284 5.921017120053533 5.266013155747508 -94.06692132169908 4.300758213614239 2.284784242709843 -55.23781653458884 -8.612926522614433 6.955887740275411 -27.698763514803115 5.83844810255192 5.319399709409843 -92.78229426581896 3.8879715750291326 1.8010243006074422 -52.5931293529972 7.496409716667295 -3.247213013053972 -12.776036821626862 26.27434532481281 8.127486954628202 19.52509961962283 26.76315027163173 9.86839320659349 1.137763150506309 13.741890478747013 -78.3194399718397 -18.621237331879342 8.67590326880194 62.585440175629614 7.3742247323853025 0.5332166490811661 -19.901183168558298 4.903660757154593 0.00000687263953143489 -7.671253303090792 -0.000002401521396570115 -21.682819566427774 -73.21420833508283 39.00050453122418 7.689199914276876 50.84542628266494 6.017822470294082 1.5029291514850613 -3.355723976110562 -19.890407917333874 0.000010905263109854418 -11.560315752962051 -8.66014951152203e-7
